<?xml version="1.0" encoding="UTF-8"?>
<svg width="33px" height="47px" viewBox="0 0 33 47" version="1.1" xmlns="http://www.w3.org/2000/svg" xmlns:xlink="http://www.w3.org/1999/xlink">
    <title>speedometer</title>
    <g id="Exp-emocional-aprobada" stroke="none" stroke-width="1" fill="none" fill-rule="evenodd">
        <g id="Experiencia-Emocional-dashboard1" transform="translate(-1010.000000, -270.000000)" fill="#636364" fill-rule="nonzero">
            <g id="Group-7" transform="translate(899.000000, 226.000000)">
                <g id="Group" transform="translate(48.000000, 9.000000)">
                    <g id="speedometer" transform="translate(79.436250, 58.572500) rotate(-19.000000) translate(-79.436250, -58.572500) translate(69.936250, 37.572500)">
                        <path d="M2.85710909,41.1573299 C3.56091149,41.5102145 4.30646159,41.6775 5.04045478,41.6775 C6.88293676,41.6775 8.65361012,40.6245735 9.5173263,38.8124024 C9.68366779,38.4635801 9.81241689,38.0784638 9.89617197,37.7157899 L14.9329689,15.2922707 L16.8511551,6.75265095 L18.0395034,1.46257919 C18.1777967,0.846912515 17.7003278,0.4275 17.2213007,0.4275 C16.9408835,0.4275 16.6598819,0.571277647 16.5014614,0.903517888 L14.0832769,5.97689096 L10.5159596,13.4611868 L0.570855014,34.3259938 C-0.6369712,36.8599832 0.386658757,39.918538 2.85710909,41.1573299 Z M5.22510552,33.9362158 C6.5729131,33.9362158 7.66555984,35.056869 7.66555984,36.439372 C7.66555984,37.8217418 6.5729131,38.9425282 5.22510552,38.9425282 C3.87729794,38.9425282 2.7846512,37.8217418 2.7846512,36.439372 C2.7846512,35.0567358 3.87729794,33.9362158 5.22510552,33.9362158 Z" id="Shape"></path>
                    </g>
                </g>
            </g>
        </g>
    </g>
</svg>